<?xml version="1.0" encoding="UTF-8"?>
<svg version="1.1" xmlns="http://www.w3.org/2000/svg" width="1551" height="946">
<path d="M0 0 C7.7277555 6.09574001 14.32952145 13.58628189 16.8515625 23.26953125 C18.17082692 27.55489696 20.10558557 31.06113676 22.3125 34.9375 C26.77038925 43.04494072 29.56404575 51.1068337 32 60 C32.53641587 61.81406093 33.07732142 63.62680754 33.625 65.4375 C33.85832031 66.21222656 34.09164062 66.98695313 34.33203125 67.78515625 C34.66267578 68.88150391 34.66267578 68.88150391 35 70 C35.21011719 70.72058594 35.42023437 71.44117188 35.63671875 72.18359375 C38.76262041 82.32018816 44.22670036 91.52776122 49.2890625 100.796875 C51.26549859 104.49705216 53.13679568 108.24195203 55 112 C55.70130145 113.40390644 56.40312563 114.80755189 57.10546875 116.2109375 C59.40364583 120.80729167 61.70182292 125.40364583 64 130 C64.4846875 129.61328125 64.969375 129.2265625 65.46875 128.828125 C66.47421875 128.04695313 66.47421875 128.04695313 67.5 127.25 C68.47453125 126.48429687 68.47453125 126.48429687 69.46875 125.703125 C72.82159257 123.44720006 76.36692778 121.75612475 80 120 C81.31092795 119.34712041 82.62084305 118.69220273 83.9296875 118.03515625 C84.57518555 117.71256836 85.22068359 117.38998047 85.88574219 117.05761719 C87.24889019 116.37570859 88.61149378 115.6927109 89.97363281 115.00878906 C93.01090336 113.48520249 96.05061695 111.97583326 99.1171875 110.51171875 C104.0425028 108.19445831 104.0425028 108.19445831 108.1875 104.75 C110.93673314 102.095568 113.25930538 102.06562622 117 102 C121.22067193 103.72663852 123.12339061 105.88933181 125 110 C126.97480503 116.8479376 127.54194448 123.79544491 128.0625 130.875 C128.21672335 132.91431697 128.37412902 134.95339649 128.53515625 136.9921875 C128.600979 137.88276855 128.66680176 138.77334961 128.73461914 139.69091797 C128.93767644 142.15609833 128.93767644 142.15609833 130 145 C130.39664904 149.07328052 130.46652245 152.77537856 129 156.625 C123.0159777 163.73102648 116.51019815 167.48981398 108.07958984 171.15942383 C103.84776672 173.01822167 100.57293722 175.01139323 97 178 C95.35868064 178.88220915 93.69126313 179.7177908 92 180.5 C81.52864476 185.61175626 76.20783867 192.43674802 72.17578125 203.23046875 C71.05666945 205.86651615 69.7280072 207.74454874 68 210 C68.11306697 211.95894361 68.11306697 211.95894361 69 214 C70.9099861 219.24081551 71.88595622 224.50748513 72.76757812 229.99023438 C73.5830399 234.68927655 75.04658608 238.61946928 77 243 C80.67009281 253.25960766 82.44740473 263.40392402 83.26416016 274.23730469 C83.89368812 282.08976153 85.55609796 289.42269863 87.52392578 297.02978516 C88.28524577 300.18047866 88.81147881 303.37143621 89.375 306.5625 C91.30679281 316.48682019 94.60918024 326.40463738 100 335 C100.495 336.0725 100.99 337.145 101.5 338.25 C104.06132341 342.81453744 108.16033099 345.64092262 112.24609375 348.7890625 C115 351 115 351 117.34765625 353.6484375 C122.83935539 358.51736664 129.82715045 358.30464178 136.8125 358.1875 C137.56208984 358.18685547 138.31167969 358.18621094 139.08398438 358.18554688 C142.30721377 358.15962278 144.92304126 358.02565291 148 357 C150 357 152 357 154 357 C162.16897442 356.44509194 166.28418976 352.48754305 172 347 C173.32691713 345.90881723 174.65931939 344.82422735 176 343.75 C178.75871588 341.51544014 180.19578266 339.04461677 182 336 C183.97315202 333.48980056 186.01361514 331.04622887 188.0625 328.59765625 C190.09254071 326.03843076 190.09254071 326.03843076 191.48046875 323.01171875 C193.09878977 319.80419818 194.93071776 317.43207603 197.3125 314.75 C198.05113281 313.89921875 198.78976562 313.0484375 199.55078125 312.171875 C203.35191498 308.80117268 206.60051173 307.95174178 211.625 308.125 C215.41554645 309.10773426 216.71147669 309.86387546 219 313 C220.79325824 316.77528051 221.09902098 320.20583782 221.3125 324.3125 C221.6588616 329.68776556 222.91343572 334.29604174 224.5625 339.375 C228.11656242 350.70160405 228.56835148 360.37934979 223.41796875 371.34375 C221.86327572 374.25612263 220.18964383 377.0227736 218.3671875 379.7734375 C216.63343338 382.59697992 215.20751219 385.5245258 213.75 388.5 C211.09165154 393.89633676 208.33347686 399.227021 205.4375 404.5 C204.9101123 405.48709961 204.9101123 405.48709961 204.37207031 406.49414062 C201.81545085 411.09089078 198.94066046 414.4971907 195 418 C194.34 418 193.68 418 193 418 C192.80664062 418.86625 192.80664062 418.86625 192.609375 419.75 C190.97454131 425.78630901 188.3523159 430.56902827 183 434 C173.94903269 437.0169891 163.19017769 434.55368253 154 433.125 C152.19982422 432.86396484 152.19982422 432.86396484 150.36328125 432.59765625 C141.21764845 431.21505779 141.21764845 431.21505779 137 429 C129.46738607 429.72603508 122.98275572 436.69960249 118.34375 442.171875 C116.48586453 444.42867509 114.66025677 446.70490255 112.85986328 449.0078125 C109.81938232 452.88786191 106.92699679 455.97337285 103 459 C101.81046533 460.72125204 101.81046533 460.72125204 100.9375 462.5625 C97.84087616 467.85961859 93.29742354 471.57165564 88.7421875 475.58203125 C84.83645397 479.02597577 82.22710669 482.0739017 79.4375 486.5 C68.63797694 502.88892502 68.63797694 502.88892502 62.76171875 504.68359375 C62.18035156 504.78800781 61.59898437 504.89242188 61 505 C60.690625 505.61875 60.38125 506.2375 60.0625 506.875 C57.90382523 511.19234953 52.30716616 512.889868 48.125 514.9375 C41.70295533 518.14069058 36.02842711 521.08807129 30.625 525.875 C24.94273754 530.5766563 18.77994863 532.50042681 11.85546875 534.67578125 C8.58541113 535.72008743 5.91983645 537.18083488 3 539 C-0.72268294 540.28009566 -4.51547354 540.16165181 -8.40625 540.16796875 C-9.12679565 540.17129715 -9.84734131 540.17462555 -10.58972168 540.17805481 C-12.1161231 540.18311082 -13.64253553 540.18546354 -15.16894531 540.18530273 C-17.46438791 540.18746643 -19.75933132 540.20557206 -22.0546875 540.22460938 C-44.64475257 540.31285361 -44.64475257 540.31285361 -53 534 C-54.50553292 533.27961059 -56.02804882 532.59404387 -57.5625 531.9375 C-60.8900653 530.51060433 -63.94204834 528.95369134 -67 527 C-67.86625 526.484375 -68.7325 525.96875 -69.625 525.4375 C-71.4444223 524.33627071 -73.23044918 523.17970055 -75 522 C-75.31130859 522.92619141 -75.31130859 522.92619141 -75.62890625 523.87109375 C-78.62058122 532.09507054 -83.28099237 540.36859542 -91 545 C-94.92336227 546.05090061 -97.04656048 546.40256335 -100.8125 544.8125 C-103.0794238 542.93419171 -103.74599924 541.59160156 -105 539 C-106.3153341 538.29848848 -107.65117592 537.63474075 -109 537 C-110.35548934 535.68919712 -111.69153074 534.35774216 -113 533 C-120.08366859 539.13499594 -120.08366859 539.13499594 -126.4375 546 C-134.02820291 554.94809919 -143.80987671 562.48030417 -155.25 565.4375 C-158.70750195 566.36980022 -160.52868636 567.11922246 -162.6875 570 C-165.46776683 573.60683264 -167.78938899 574.42102087 -172 576 C-172.845625 576.5775 -173.69125 577.155 -174.5625 577.75 C-177.87173231 579.44704221 -179.4472525 578.9898202 -183 578 C-185.44921875 575.890625 -185.44921875 575.890625 -187.6875 573.25 C-188.43386719 572.38890625 -189.18023438 571.5278125 -189.94921875 570.640625 C-191.86363916 568.17558081 -193.45350826 565.70636055 -195 563 C-197.12248695 559.63329656 -199.31791265 556.6127993 -202 553.6875 C-205.35776779 549.88657504 -207.18897937 545.69800058 -209 541 C-210.23047495 541.60149768 -211.45930984 542.2063507 -212.6875 542.8125 C-213.37199219 543.14894531 -214.05648437 543.48539063 -214.76171875 543.83203125 C-217.24012532 545.12530099 -219.61142153 546.54783208 -222 548 C-222.84820313 548.495 -223.69640625 548.99 -224.5703125 549.5 C-225.83488281 550.2425 -225.83488281 550.2425 -227.125 551 C-227.97320313 551.495 -228.82140625 551.99 -229.6953125 552.5 C-231.99695321 553.88357799 -231.99695321 553.88357799 -233.6171875 555.625 C-235 557 -235 557 -238 558 C-239.01351664 559.65848177 -240.01120795 561.32665961 -241 563 C-243.29836895 565.54030252 -245.36336289 567.62145901 -248.3125 569.375 C-251.4915898 571.29724035 -254.08379086 573.60718767 -256.83984375 576.0859375 C-261.73393761 580.42247637 -266.02791733 583.78168311 -271.9375 586.6875 C-273.10152344 587.26886719 -274.26554687 587.85023438 -275.46484375 588.44921875 C-279 590 -279 590 -282.37890625 590.95703125 C-285.24939501 591.78380633 -287.63545774 592.69237984 -290.3203125 593.9375 C-295.05693746 596.10418994 -299.8722592 597.57919459 -304.875 599 C-306.64122085 599.51880913 -308.40685286 600.03962731 -310.171875 600.5625 C-311.00783203 600.81 -311.84378906 601.0575 -312.70507812 601.3125 C-324.42959974 604.82486733 -333.68501491 610.25990466 -343.61328125 617.3359375 C-346.43232352 619.3014236 -349.33519557 621.09253423 -352.26953125 622.87890625 C-354.19711361 624.07477191 -354.19711361 624.07477191 -356.5 626.125 C-359.09282124 628.06961593 -361.56188006 629.0518698 -364.609375 630.1015625 C-367.41401784 631.15559494 -370.05369419 632.44332872 -372.75 633.75 C-388.89786394 641.25323689 -405.49967794 646.60451198 -423.375 647.375 C-430.01808529 647.75782186 -434.30966528 649.74217478 -440 653 C-444.28383863 655.11803174 -448.61628674 657.09784013 -453 659 C-453.78632813 659.34546875 -454.57265625 659.6909375 -455.3828125 660.046875 C-463.7901123 663.15201012 -476.43275512 663.85574829 -485 661 C-486.89913837 660.80987951 -488.79861817 660.62231527 -490.69995117 660.45556641 C-502.7700819 659.34666842 -512.37649847 655.77537995 -522.0625 648.4375 C-523.99861512 646.92809754 -523.99861512 646.92809754 -526.32421875 645.75390625 C-529.46075909 643.69798419 -531.40886776 641.42248723 -533.75 638.5 C-534.52859375 637.5409375 -535.3071875 636.581875 -536.109375 635.59375 C-538.55227537 632.24233296 -539.12049187 629.69572547 -539.28125 625.65625 C-539.31863281 624.82222656 -539.35601563 623.98820313 -539.39453125 623.12890625 C-539.46484375 621.37630208 -539.53515625 619.62369792 -539.60546875 617.87109375 C-539.64285156 617.03707031 -539.68023438 616.20304688 -539.71875 615.34375 C-539.74904297 614.58255859 -539.77933594 613.82136719 -539.81054688 613.03710938 C-539.9409768 610.79870351 -539.9409768 610.79870351 -541 608 C-541.13693996 606.6456003 -541.22450909 605.28590315 -541.28125 603.92578125 C-541.31782715 603.05324707 -541.3544043 602.18071289 -541.39208984 601.28173828 C-541.44550537 599.81196533 -541.44550537 599.81196533 -541.5 598.3125 C-541.54205566 597.27335449 -541.58411133 596.23420898 -541.62744141 595.16357422 C-541.92800155 587.03269063 -542.06959306 578.90484408 -542.1796875 570.76953125 C-542.2126538 568.58878221 -542.24585877 566.40803677 -542.27929688 564.22729492 C-542.34646959 559.84074623 -542.39375055 555.45451497 -542.43164062 551.06762695 C-542.46149489 549.01642783 -542.49206318 546.96523894 -542.5234375 544.9140625 C-542.52665009 543.9588118 -542.52986267 543.0035611 -542.53317261 542.0193634 C-542.55808273 540.69807686 -542.55808273 540.69807686 -542.58349609 539.35009766 C-542.59158295 538.57944977 -542.5996698 537.80880188 -542.60800171 537.01480103 C-543.10480951 534.46129789 -543.93367008 533.54339716 -546 532 C-551.3564612 532.07831084 -556.57894091 533.35406405 -561.4375 535.5625 C-565.98420684 537.39713609 -570.14369409 537.50263444 -575.01171875 537.69140625 C-577.9181477 537.99154728 -579.46241559 538.6815594 -582 540 C-583.010625 539.79375 -584.02125 539.5875 -585.0625 539.375 C-591.36810489 538.7744662 -596.6299112 541.64214869 -602.4140625 543.97265625 C-614.19305156 547.99246998 -628.64618999 546.05349416 -640.61328125 543.4609375 C-643.1915694 542.96300296 -645.69241982 542.78379274 -648.3125 542.625 C-653.98206967 542.18080295 -659.11910014 540.62064226 -664.5390625 538.95703125 C-667.67530374 538.08978621 -670.58850107 537.61656426 -673.8125 537.25 C-681.54971974 536.10912309 -688.20977562 532.40154555 -695.125 528.92919922 C-698.05310384 527.47811026 -701.04342828 526.18125727 -704.04296875 524.88671875 C-705.01169922 524.44779297 -705.01169922 524.44779297 -706 524 C-706.9796875 523.57332031 -707.959375 523.14664063 -708.96875 522.70703125 C-712.30716121 520.82702391 -713.98224186 519.01924219 -716.3125 516 C-717.07691406 515.02675781 -717.84132813 514.05351563 -718.62890625 513.05078125 C-719.41136719 512.04402344 -720.19382812 511.03726563 -721 510 C-722.57775286 508.05795298 -724.16092895 506.12029691 -725.75 504.1875 C-726.44609375 503.33542969 -727.1421875 502.48335937 -727.859375 501.60546875 C-729.37741994 499.75777537 -730.94274597 497.94847565 -732.5390625 496.16796875 C-735.34547346 492.80081529 -736.96721865 489.15432967 -738.625 485.125 C-738.91117188 484.45597656 -739.19734375 483.78695313 -739.4921875 483.09765625 C-742.80708304 475.27751632 -745.54329344 467.39637192 -747.9375 459.24609375 C-748.94321417 455.94824263 -748.94321417 455.94824263 -750.5234375 452.76171875 C-752.54944588 448.14713425 -753.0223398 443.34161899 -753.625 438.375 C-753.75052246 437.40457764 -753.87604492 436.43415527 -754.00537109 435.43432617 C-754.80614654 429.08577417 -755.43359498 422.75323317 -755.7890625 416.36328125 C-755.92180485 413.85019373 -755.92180485 413.85019373 -757 411 C-757.09130522 409.62732077 -757.13065525 408.25071082 -757.1328125 406.875 C-757.13410156 406.08609375 -757.13539063 405.2971875 -757.13671875 404.484375 C-757.13285156 403.66453125 -757.12898437 402.8446875 -757.125 402 C-757.12886719 401.18015625 -757.13273438 400.3603125 -757.13671875 399.515625 C-757.13542969 398.72671875 -757.13414062 397.9378125 -757.1328125 397.125 C-757.13168457 396.40570312 -757.13055664 395.68640625 -757.12939453 394.9453125 C-757 393 -757 393 -756 390 C-755.82566624 387.54730434 -755.69764423 385.11202873 -755.60546875 382.65625 C-755.53659423 381.16663007 -755.46690542 379.67704762 -755.39648438 378.1875 C-755.2899818 375.85565406 -755.18839829 373.52406297 -755.10131836 371.19140625 C-754.77295605 362.63020505 -754.21616892 355.29708846 -750.86694336 347.29443359 C-749.63131205 344.02423842 -749.63807054 341.03396884 -749.6875 337.5625 C-749.35859348 323.9294909 -743.24493692 311.10866143 -737.34960938 299.03027344 C-735.32633629 294.85698465 -733.94154546 290.76031003 -732.72265625 286.30078125 C-731.35553286 281.94815598 -729.10969679 278.0295751 -727 274 C-726.00930782 272.02017907 -725.02816327 270.03576648 -724.046875 268.05126953 C-719.81370064 259.50396924 -715.45239284 251.11211862 -710.2890625 243.08203125 C-709.40233342 241.64982943 -708.56587445 240.18566895 -707.7734375 238.69921875 C-701.62800999 227.43260166 -692.83509668 218.95710856 -681 214 C-677.24312198 212.0169881 -673.64398021 209.78102041 -670.0625 207.5 C-665.30823076 204.51264308 -660.41552214 202.0002303 -655.2265625 199.8515625 C-649.0261245 197.4057099 -649.0261245 197.4057099 -644.4375 192.8125 C-640.88570399 188.71427383 -637.17664624 188.69863681 -632 188 C-631.30132813 187.80921875 -630.60265625 187.6184375 -629.8828125 187.421875 C-628 187 -628 187 -624.9375 187.5625 C-621.81748195 188.36309053 -621.81748195 188.36309053 -619 186 C-615.51604667 185.10732731 -612.02875824 184.33365031 -608.51171875 183.58789062 C-604.89631716 182.78765623 -601.79965926 181.91163349 -598.38671875 180.40625 C-594.74542414 178.89429376 -591.984129 178.57424972 -588.0625 178.4375 C-582.45803633 178.16415445 -582.45803633 178.16415445 -577 177 C-572.13182702 175.56818442 -567.11533201 175.51313651 -562.07421875 175.24609375 C-558.96226594 175.12048791 -558.96226594 175.12048791 -556 174 C-553.21663466 173.90271163 -550.45908466 173.86006142 -547.67578125 173.8671875 C-546.85554977 173.86623077 -546.0353183 173.86527405 -545.19023132 173.86428833 C-543.45274784 173.86360777 -541.7152618 173.86545343 -539.9777832 173.86962891 C-537.33994702 173.87494469 -534.70228377 173.86969753 -532.06445312 173.86328125 C-530.37239546 173.86394272 -528.6803379 173.86522531 -526.98828125 173.8671875 C-526.20777908 173.86516327 -525.42727692 173.86313904 -524.62312317 173.86105347 C-520.90809395 173.87665686 -517.3168274 174.0402284 -513.63354492 174.54345703 C-510.07562352 175.17409971 -510.07562352 175.17409971 -506.875 174.4375 C-504 174 -504 174 -501.38232422 174.96264648 C-497.14025366 176.26368285 -493.41256092 176.23284088 -489.0078125 176.16015625 C-487.71241043 176.1523539 -487.71241043 176.1523539 -486.39083862 176.14439392 C-483.63538374 176.12666812 -480.88030967 176.09560044 -478.125 176.0625 C-443.35352387 175.70496068 -443.35352387 175.70496068 -436 179 C-434.32155559 179.35796208 -432.63256562 179.66905069 -430.9375 179.9375 C-420.62161982 181.73758647 -411.36737152 184.25195825 -402 189 C-401.18660156 189.34546875 -400.37320312 189.6909375 -399.53515625 190.046875 C-397.22080226 191.16947905 -395.68549688 192.053041 -394 194 C-393.00094592 197.82867309 -393.34464138 201.12977193 -394 205 C-394.15339844 205.94617188 -394.30679687 206.89234375 -394.46484375 207.8671875 C-395.26529698 210.85266172 -395.94504787 212.67721141 -398 215 C-401.3595304 216.10825388 -404.38013609 216.49230232 -407.90625 216.71875 C-410.91459734 216.99223612 -412.39473699 217.6204198 -415 219 C-418.42820517 219.38163039 -421.86358252 219.56820874 -425 218 C-427.06302385 218.50260638 -429.10276452 219.10250929 -431.125 219.75 C-432.30320312 220.12511719 -433.48140625 220.50023437 -434.6953125 220.88671875 C-437.167101 221.71941346 -439.58170785 222.59206946 -442 223.5625 C-451.84104781 227.36660252 -462.60309212 228.67231048 -472.97021484 230.31152344 C-485.16779647 232.2647217 -496.88141474 234.36047668 -507.62890625 240.76953125 C-514.74508263 244.46243992 -522.83014402 246.04021822 -530.65234375 247.515625 C-538.19279506 249.0456771 -538.19279506 249.0456771 -544.3125 253.375 C-547.22097115 256.21583229 -549.09360601 256.86143494 -552.875 258.1875 C-561.66080475 261.61979227 -565.04414078 268.64748463 -568.9140625 276.80078125 C-572.38917734 283.83851383 -576.21489121 290.68703428 -581.640625 296.40234375 C-584.96868995 300.3137764 -586.55812676 304.34819296 -587.9375 309.25 C-589.09143014 313.17424333 -590.29570229 316.87380401 -592.0625 320.5625 C-594.15684416 324.99661927 -595.17371998 329.53466514 -596.29296875 334.29296875 C-597.12796869 337.48995749 -598.42733936 340.09662652 -600 343 C-601.29982404 346.11957771 -602.56330205 349.25200888 -603.81640625 352.390625 C-605 355 -605 355 -607 357 C-607.53815059 359.32186196 -607.53815059 359.32186196 -607.875 362 C-608.67159582 366.79202176 -610.01130404 370.85970944 -611.91796875 375.30859375 C-613.97182562 380.41728466 -615.42520955 385.72851835 -617 391 C-617.33 391.99 -617.66 392.98 -618 394 C-618.30260304 399.58665374 -618.35626554 405.17280554 -618.4050293 410.7668457 C-618.42653308 412.61827331 -618.46054489 414.46960137 -618.50756836 416.32055664 C-618.96264868 431.19482897 -618.96264868 431.19482897 -612 444 C-611.03242129 445.47313552 -610.07282579 446.95157838 -609.125 448.4375 C-606.4541932 451.93813972 -604.15123656 452.9458254 -600.01171875 454.16796875 C-596.85671173 455.47285515 -594.94639177 457.7567515 -592.66015625 460.23046875 C-591.12387776 461.86796088 -589.55530106 463.27666105 -587.8125 464.6875 C-585 467 -585 467 -582.9375 469.125 C-580.80072902 471.19284288 -578.56550482 472.51470774 -576 474 C-575.34 474.66 -574.68 475.32 -574 476 C-570.69164744 476.93312508 -569.32320026 477.10773342 -566 476 C-564.00136803 475.87224654 -562.00094113 475.77167421 -560 475.6875 C-554.24451502 475.30122584 -549.54885587 474.0522678 -544.2421875 471.83984375 C-542 471 -542 471 -539 471 C-539.00902344 470.40316406 -539.01804687 469.80632812 -539.02734375 469.19140625 C-538.74611649 460.96245207 -535.96838436 454.42455807 -532.69140625 447.015625 C-531.11937944 443.41767935 -529.98897518 439.80480729 -529 436 C-528.80277344 435.28457031 -528.60554687 434.56914063 -528.40234375 433.83203125 C-527.07591767 428.06932297 -526.81870724 422.44614698 -526.625 416.5625 C-526.32237227 407.84370477 -524.94016132 399.71055943 -522.9375 391.234375 C-521.5962817 385.46878398 -520.86030874 379.67828413 -520.8125 373.75 C-520.79832031 372.94046875 -520.78414062 372.1309375 -520.76953125 371.296875 C-520.84403507 369.00312135 -520.84403507 369.00312135 -521.984375 367.2578125 C-523.59481152 363.67768823 -523.34610224 360.00806615 -523.4375 356.125 C-523.65197576 350.10709626 -524.14536496 344.5054482 -525.5625 338.625 C-527.26021877 331.49123591 -529.03139752 323.05704037 -525.62109375 316.24609375 C-523.64567518 313.50906803 -522.11701282 312.30479606 -519 311 C-513.76027401 310.88356164 -510.79907185 313.39211292 -506.8828125 316.51171875 C-504.69998935 318.23714535 -502.41794361 319.62765363 -500 321 C-498.8553125 321.7115625 -498.8553125 321.7115625 -497.6875 322.4375 C-491.89263647 325.8066067 -486.46491539 328.16827397 -480 330 C-476.99422444 331.18951969 -474.02149069 332.4456159 -471.046875 333.7109375 C-468.35762049 334.84869902 -465.65615178 335.93505042 -462.9375 337 C-458.41512851 338.79297875 -454.01186934 340.80507382 -449.59765625 342.84765625 C-447.35522035 343.84242105 -445.12841856 344.69781294 -442.8125 345.5 C-437.43930537 347.46796017 -432.50161071 349.96555969 -429.0625 354.625 C-426.88503419 359.49227653 -426.64244238 363.92441097 -426.28125 369.1875 C-426.09652802 372.0775174 -426.09652802 372.0775174 -425 375 C-423.81045594 383.29743699 -423.8901288 391.63758078 -424 400 C-418.56221187 398.14949795 -413.27861261 396.23935788 -408.1875 393.5625 C-403.04842815 390.87766438 -397.70743768 389.09120884 -392.19921875 387.30859375 C-388.95721777 386.17970842 -388.95721777 386.17970842 -386.64453125 383.97265625 C-380.44131251 379.34543991 -372.27098865 379.65926954 -364.8125 379.6875 C-363.94947266 379.67138672 -363.08644531 379.65527344 -362.19726562 379.63867188 C-357.03590292 379.63472286 -353.46135421 380.12612152 -349 383 C-345.65408692 386.34591308 -343.69655494 389.48410667 -341.6875 393.75 C-339.84941606 397.62331254 -337.75325324 400.71469219 -335 404 C-328.54656456 411.80755894 -325.24346745 418.83929162 -325 429 C-324.94972656 429.78632812 -324.89945313 430.57265625 -324.84765625 431.3828125 C-324.59330694 437.38545626 -325.62953727 441.83938302 -329.3125 446.75 C-331.69820646 448.51718997 -334.34827788 449.67413894 -337 451 C-337.46148438 451.4846875 -337.92296875 451.969375 -338.3984375 452.46875 C-340.34431121 454.3291951 -342.11423189 455.04351691 -344.625 456 C-345.50800781 456.33902344 -346.39101563 456.67804688 -347.30078125 457.02734375 C-349.79110975 457.92472696 -352.29156151 458.75596859 -354.8125 459.5625 C-357.3235907 460.37323609 -359.2192051 461.13152306 -361.5 462.5 C-363.84035628 463.90421377 -365.78827237 464.63186934 -368.375 465.4375 C-373.55995973 467.0939264 -378.14404283 469.08604417 -382 473.0625 C-384.66974093 475.64881153 -387.58017641 476.58490058 -391 478 C-393.0180755 479.30581356 -395.02053408 480.63636792 -397 482 C-397.65871094 482.2990625 -398.31742188 482.598125 -398.99609375 482.90625 C-401.26047702 484.14217069 -402.32106204 485.39631031 -403.875 487.4375 C-405.98985307 490.05309914 -406.85297808 490.93999105 -410.0625 492.25 C-414.85600266 495.10570371 -415.95978874 499.98592148 -418 505 C-418.67187661 506.34127397 -419.35783072 507.67566045 -420.0625 509 C-424.13196088 517.10583672 -426.72989181 524.91761204 -427 534 C-427.02578125 534.76683105 -427.0515625 535.53366211 -427.078125 536.32373047 C-427.15846253 539.00750607 -427.2088266 541.69035064 -427.25 544.375 C-427.2823877 545.69649048 -427.2823877 545.69649048 -427.31542969 547.04467773 C-427.38014383 552.05648471 -427.38014383 552.05648471 -425.484375 556.6015625 C-424.99453125 557.06304688 -424.5046875 557.52453125 -424 558 C-423.030625 557.525625 -422.06125 557.05125 -421.0625 556.5625 C-417.46348461 554.99612691 -414.20871259 554.57799835 -410.30859375 554.40625 C-407.84315459 554.10809679 -407.84315459 554.10809679 -405.38671875 552.4921875 C-400.68709101 550.4215326 -396.45080923 550.64390432 -391.375 550.625 C-382.51463442 550.4073719 -375.91076551 549.17155582 -368 545 C-352.09160575 537.92724261 -333.5489387 531.40060536 -316 530.5 C-306.64910846 529.96310671 -298.99516909 525.95333539 -292 520 C-289.02849619 518.64353606 -286.01139771 517.45523479 -282.97265625 516.2578125 C-279.00521244 514.57907806 -275.56511194 512.39062413 -272 510 C-271.113125 509.484375 -270.22625 508.96875 -269.3125 508.4375 C-262.52381247 504.21750505 -258.03179491 498.8365218 -254 492 C-252.22793056 489.67797797 -250.46471287 487.45465899 -248.375 485.41015625 C-247.818125 484.84167969 -247.26125 484.27320313 -246.6875 483.6875 C-245.88892578 482.91986328 -245.88892578 482.91986328 -245.07421875 482.13671875 C-243.35774016 478.72248678 -244.06899326 475.55620775 -245 472 C-246.06543145 469.39037784 -247.39464662 466.99534216 -248.8125 464.5625 C-249.5477075 463.24337494 -250.28079837 461.92306785 -251.01171875 460.6015625 C-251.36024902 459.97668945 -251.7087793 459.35181641 -252.06787109 458.70800781 C-253.95845605 455.24375104 -255.47901532 451.63713728 -257 448 C-257.97771377 445.70771309 -258.95701683 443.41610371 -259.9375 441.125 C-260.44667969 439.93132812 -260.95585938 438.73765625 -261.48046875 437.5078125 C-262.86243104 434.31757566 -264.29231356 431.15617063 -265.75 428 C-267.06239505 425.15787058 -268.16427447 422.48892387 -269.125 419.5 C-269.7939955 416.99066567 -269.7939955 416.99066567 -271.44506836 415.59814453 C-274.30280426 412.66098969 -275.23369283 408.68507847 -276.5625 404.875 C-276.8733252 403.99078369 -277.18415039 403.10656738 -277.50439453 402.19555664 C-279.93218315 394.93879137 -281.12081779 387.91562028 -281.7109375 380.30859375 C-281.87082936 377.00008112 -281.87082936 377.00008112 -283 374 C-283.15151191 372.10610107 -283.27297343 370.20970837 -283.375 368.3125 C-283.6535498 364.4545852 -284.07442394 361.29518072 -285.625 357.75 C-287.36114523 353.01505846 -287.21509877 350.86039509 -286 346 C-284.5 343.5625 -284.5 343.5625 -282 342 C-279.69996106 341.65753097 -277.42159499 341.49489218 -275.1015625 341.34375 C-272.12849974 340.85744977 -271.01486751 339.14919202 -269 337 C-265.29899361 335.99063462 -263.0972142 335.46298947 -259.59765625 337.17578125 C-256.65910595 339.23939477 -254.35397014 341.52763129 -251.875 344.125 C-248.31068771 347.79008089 -244.69193487 351.18091606 -240.6875 354.375 C-220.23364582 370.8206061 -220.23364582 370.8206061 -217.7734375 379 C-216.69275734 381.79448608 -214.91488764 383.70349774 -213 386 C-212.2884375 386.97195313 -211.576875 387.94390625 -210.84375 388.9453125 C-205.68872649 395.93896107 -200.29777351 401.8379981 -193.76171875 407.5625 C-189.74913679 411.10401506 -186.08934702 414.80970052 -182.6875 418.9375 C-180.26230047 421.75983919 -177.84781608 423.9754546 -174.8125 426.125 C-170.67821058 429.08260705 -168.48400945 432.40298347 -165.96875 436.8046875 C-161.18383526 444.85498325 -154.67903652 451.48793939 -148 458 C-147.36835937 458.75796875 -146.73671875 459.5159375 -146.0859375 460.296875 C-141.89296253 465.12651888 -141.89296253 465.12651888 -136.21875 467.75390625 C-130.73047372 467.98761032 -126.70319488 467.06986614 -122.49609375 463.48828125 C-122.00238281 462.99714844 -121.50867188 462.50601562 -121 462 C-120.27490234 461.27876953 -120.27490234 461.27876953 -119.53515625 460.54296875 C-116.53642881 457.24871455 -114.97075116 454.31556733 -114 450 C-114.28748351 447.03210009 -115.0274908 444.20107836 -115.75 441.3125 C-117.97689147 431.53710828 -118.80191867 421.84539068 -119.40332031 411.85083008 C-119.4700293 410.74376709 -119.53673828 409.6367041 -119.60546875 408.49609375 C-119.65856201 407.50794678 -119.71165527 406.5197998 -119.76635742 405.50170898 C-119.91658384 402.87251357 -119.91658384 402.87251357 -121 400 C-121.09531971 398.63666606 -121.13803882 397.26923089 -121.14526367 395.90258789 C-121.15483345 394.66968773 -121.15483345 394.66968773 -121.16459656 393.41188049 C-121.16626579 392.08071449 -121.16626579 392.08071449 -121.16796875 390.72265625 C-121.17129715 389.80093124 -121.17462555 388.87920624 -121.17805481 387.92955017 C-121.18312151 385.97346495 -121.18546321 384.01737107 -121.18530273 382.0612793 C-121.18746875 379.10515501 -121.20556994 376.1494166 -121.22460938 373.19335938 C-121.25312829 363.60801068 -121.13057979 354.3981695 -119 345 C-117.94739616 339.85650723 -117.02348632 334.79987884 -116.67578125 329.5546875 C-115.72193769 315.70363258 -112.69104712 302.95230324 -108.77758789 289.64501953 C-108.15266902 287.51931432 -107.55440826 285.38578087 -106.96484375 283.25 C-105.81965696 279.39252872 -104.47564033 275.64100118 -103.0625 271.875 C-102.81048828 271.18535156 -102.55847656 270.49570312 -102.29882812 269.78515625 C-100.22490241 264.23700715 -98.07384356 259.56280229 -93.4375 255.6875 C-92.83808594 255.17574219 -92.23867188 254.66398438 -91.62109375 254.13671875 C-90 253 -90 253 -88 253 C-87.773125 252.2575 -87.54625 251.515 -87.3125 250.75 C-85.69920109 247.36975468 -84.07647265 246.11934782 -81 244 C-80.47148438 243.61328125 -79.94296875 243.2265625 -79.3984375 242.828125 C-75.46855852 240.20820568 -72.74747661 239.62882496 -68.08984375 240.34765625 C-62.12991636 242.2080448 -58.27498005 245.33722454 -54.1875 249.9375 C-53.66978027 250.50726563 -53.15206055 251.07703125 -52.61865234 251.6640625 C-48.39801634 256.3805549 -44.66878247 261.35772215 -40.96875 266.4921875 C-39.26831829 268.6582136 -37.85041177 270.06502999 -35.625 271.625 C-32.26001353 274.66951157 -31.90674368 277.24084745 -30.8359375 281.54296875 C-29.94877687 284.15055769 -29.06499821 285.28196877 -27.125 287.1875 C-22.29020884 292.26223117 -20.90434241 299.43001867 -19 306 C-18.55140625 307.46566406 -18.55140625 307.46566406 -18.09375 308.9609375 C-14.71814025 320.47176674 -13.86177611 331.84721825 -13.46655273 343.76928711 C-13.24288836 349.32385639 -12.66638028 354.45414493 -11.4375 359.875 C-8.41127786 373.60591835 -9.79943345 384.79926104 -14.29882812 397.93164062 C-14.97960157 399.93982748 -15.61349448 401.95696902 -16.234375 403.984375 C-19.34404425 413.9850612 -23.57419051 423.05589217 -29 432 C-29.47179687 432.81339844 -29.94359375 433.62679688 -30.4296875 434.46484375 C-34.7985789 441.93919038 -34.7985789 441.93919038 -37.75 445.1875 C-40.45677659 448.57097073 -41.48779332 450.68282939 -42 455 C-41.00611819 458.1903057 -39.5437496 461.04529646 -38 464 C-37.608125 464.99 -37.21625 465.98 -36.8125 467 C-36.16569697 468.96396038 -36.16569697 468.96396038 -35 470 C-27.55823291 470.56082882 -21.75616451 470.31881765 -15 467 C-12.87951056 466.44093621 -10.75374663 465.90175002 -8.625 465.375 C11.56381041 459.68620385 28.04060495 446.20207134 42.9140625 431.91015625 C44.93217479 429.97306074 46.99511324 428.14914041 49.1640625 426.3828125 C51.62995158 424.31092222 53.68047309 422.26650325 55.75 419.8125 C57.45766558 417.80099302 59.13323413 415.86676587 61 414 C61.80432248 412.01656604 62.45581465 410.0065095 63.12109375 407.97265625 C64 406 64 406 65.53515625 404.49609375 C67.41719563 402.5739042 68.00978109 401.71914196 68 399 C66.35483116 396.89080918 64.7628175 395.11675936 62.875 393.25 C52 381.9871612 52 381.9871612 52 377 C51.42121094 376.74734375 50.84242188 376.4946875 50.24609375 376.234375 C46.13985654 373.97772985 43.19906141 370.37112248 40 367 C38.6078125 365.6078125 38.6078125 365.6078125 37.1875 364.1875 C32.41966201 357.24007892 31.69486607 348.62216189 30.33764648 340.45800781 C29.10959101 333.23158362 27.51632476 326.09411213 25.9375 318.9375 C24.00613587 310.14784614 22.42927458 301.54388781 21.4921875 292.59375 C20.8442865 287.86304426 19.68553961 283.33891281 18.46484375 278.72900391 C17.1566273 273.76540445 16.21687775 268.82621289 15.4296875 263.7578125 C14.9991604 260.99461132 14.52068354 258.24760699 14 255.5 C13.855625 254.7265625 13.71125 253.953125 13.5625 253.15625 C13.09165754 250.99132614 13.09165754 250.99132614 12.00219727 249.18383789 C10.84681082 246.66619313 10.61174365 244.65982039 10.40234375 241.90234375 C10.32306641 240.93619141 10.24378906 239.97003906 10.16210938 238.97460938 C10.08798828 237.97236328 10.01386719 236.97011719 9.9375 235.9375 C9.78315819 233.94636314 9.62574205 231.95546153 9.46484375 229.96484375 C9.399021 229.0843335 9.33319824 228.20382324 9.26538086 227.29663086 C9.06134968 224.84198301 9.06134968 224.84198301 8 222 C7.81028079 220.48050097 7.65967459 218.95591352 7.53515625 217.4296875 C7.41817383 216.08390625 7.41817383 216.08390625 7.29882812 214.7109375 C7.14324255 212.84391063 6.98954689 210.97672515 6.83789062 209.109375 C6.32504665 203.25544864 5.36632709 197.70921938 4 192 C2.86522211 186.0660573 1.99695667 180.1134359 1.30078125 174.11254883 C0.50970175 167.30650931 -0.65065128 160.71958952 -2.28125 154.05859375 C-3.78012126 147.68024484 -4.68858768 141.18592295 -5.61328125 134.703125 C-6.84182697 126.3938812 -8.46006305 118.99932072 -11.74609375 111.2109375 C-13.13141642 107.66347571 -14.07482983 104.13068944 -15 100.4375 C-16.16818916 95.85352574 -17.47771347 91.58233898 -19.375 87.25 C-25.68887669 72.62737146 -28.97409516 59.41415408 -28.67236328 43.43408203 C-28.6242729 40.70879541 -28.63141565 37.98733497 -28.64453125 35.26171875 C-28.63339949 33.50258108 -28.61919354 31.74345954 -28.6015625 29.984375 C-28.60338531 29.18328308 -28.60520813 28.38219116 -28.60708618 27.55682373 C-28.41025663 19.72044978 -24.92110578 14.86410998 -20.0625 8.8125 C-19.41410156 7.99394531 -18.76570312 7.17539063 -18.09765625 6.33203125 C-13.02700313 0.6948247 -7.63367176 -3.04847121 0 0 Z " fill="#000000" transform="translate(930,149)"/>
<path d="M0 0 C2.625 1.3125 2.625 1.3125 5 3 C8.55446939 5.3534712 11.5884469 6.55124332 15.75 7.4375 C26.60448693 10.04840833 33.63731263 14.55583731 42 22 C42.83724609 22.680625 42.83724609 22.680625 43.69140625 23.375 C45.66061497 25.82034575 46.2201826 28.43312094 47.0625 31.4375 C48.12527923 35.18923873 49.25897441 38.52545324 51 42 C52.01060933 50.08487461 49.09419101 57.36307149 44.61328125 64.078125 C43.16328322 65.84195822 41.64897366 67.42119543 40 69 C39.40316406 69.59425781 38.80632812 70.18851562 38.19140625 70.80078125 C29.96372321 78.53182346 21.90666551 81.9007134 10.625 81.625 C9.61203857 81.60590576 8.59907715 81.58681152 7.55541992 81.56713867 C-4.00730763 81.14777477 -11.29904724 78.39135786 -19.1875 69.9375 C-35.39528487 51.57728337 -35.39528487 51.57728337 -35.28515625 41.99609375 C-34.22168719 30.8223846 -31.82091303 18.19263099 -23.3125 10.375 C-16.03103824 4.42983646 -9.76515482 -0.67345895 0 0 Z " fill="#000000" transform="translate(679,355)"/>
<path d="M0 0 C0.99 0.66 1.98 1.32 3 2 C4.093125 2.103125 5.18625 2.20625 6.3125 2.3125 C10 3 10 3 12.6015625 5.50390625 C16.65039561 9.04544922 20.90208029 8.67029995 26.0625 8.625 C36.88297872 8.625 36.88297872 8.625 41 12 C46.10457289 18.56302229 47.27189876 25.04141107 48.33984375 33.09765625 C49.41148512 37.80907362 52.06020963 41.1938607 55 44.9375 C58.48664504 49.58925835 60.9347543 52.94476048 61.125 58.9375 C60.26061231 64.06489064 56.77671113 66.74279281 53 70 C51.05010043 71.83383412 49.93265985 73.12243664 48.625 75.5 C46.6688495 78.5094623 45.23167012 79.45056912 42 81 C31.44564636 82.21781004 21.91207855 80.96434314 13 75 C11.50804688 73.46786861 10.07193382 71.87993671 8.6875 70.25 C5.86204533 67.01083483 3.05120984 64.06454828 -0.25 61.3125 C-5.95552518 56.45939392 -9.68794305 51.51450797 -11 44 C-11.29031636 37.6665195 -11.31705828 31.4468419 -10.25 25.1875 C-9.62939093 20.77790921 -11.17042901 18.08512016 -13.125 14.203125 C-14.6378325 10.39402889 -14.06576428 7.93000579 -13 4 C-9.1927754 -0.94939198 -5.90577494 -1.35340676 0 0 Z " fill="#000000" transform="translate(1332,326)"/>
<path d="M0 0 C0.99 0.99 1.98 1.98 3 3 C2.67 3.66 2.34 4.32 2 5 C1.01 4.34 0.02 3.68 -1 3 C-0.67 2.01 -0.34 1.02 0 0 Z " fill="#000000" transform="translate(179,656)"/>
<path d="M0 0 C0.66 0.66 1.32 1.32 2 2 C1.34 2 0.68 2 0 2 C0 1.34 0 0.68 0 0 Z " fill="#000000" transform="translate(166,670)"/>
<path d="" fill="#000000" transform="translate(0,0)"/>
<path d="" fill="#000000" transform="translate(0,0)"/>
<path d="" fill="#000000" transform="translate(0,0)"/>
<path d="" fill="#000000" transform="translate(0,0)"/>
<path d="" fill="#000000" transform="translate(0,0)"/>
</svg>
