<?xml version="1.0" encoding="UTF-8"?>
<svg version="1.1" xmlns="http://www.w3.org/2000/svg" width="596" height="596">
<path d="M0 0 C0.82023148 -0.00095673 1.64046295 -0.00191345 2.48554993 -0.00289917 C4.22303341 -0.00357973 5.96051945 -0.00173407 7.69799805 0.00244141 C10.33583423 0.00775719 12.97349748 0.00251003 15.61132812 -0.00390625 C17.30338579 -0.00324478 18.99544335 -0.00196219 20.6875 0 C21.46800217 -0.00202423 22.24850433 -0.00404846 23.05265808 -0.00613403 C26.7676873 0.00946936 30.35895385 0.1730409 34.04223633 0.67626953 C37.60015773 1.30691221 37.60015773 1.30691221 40.80078125 0.5703125 C43.67578125 0.1328125 43.67578125 0.1328125 46.29345703 1.09545898 C50.53552759 2.39649535 54.26322033 2.36565338 58.66796875 2.29296875 C59.96337082 2.2851664 59.96337082 2.2851664 61.28494263 2.27720642 C64.04039751 2.25948062 66.79547158 2.22841294 69.55078125 2.1953125 C104.32225738 1.83777318 104.32225738 1.83777318 111.67578125 5.1328125 C113.35422566 5.49077458 115.04321563 5.80186319 116.73828125 6.0703125 C127.05416143 7.87039897 136.30840973 10.38477075 145.67578125 15.1328125 C146.48917969 15.47828125 147.30257813 15.82375 148.140625 16.1796875 C150.45497899 17.30229155 151.99028437 18.1858535 153.67578125 20.1328125 C154.67483533 23.96148559 154.33113987 27.26258443 153.67578125 31.1328125 C153.52238281 32.07898438 153.36898438 33.02515625 153.2109375 34 C152.41048427 36.98547422 151.73073338 38.81002391 149.67578125 41.1328125 C146.31625085 42.24106638 143.29564516 42.62511482 139.76953125 42.8515625 C136.76118391 43.12504862 135.28104426 43.7532323 132.67578125 45.1328125 C129.24757608 45.51444289 125.81219873 45.70102124 122.67578125 44.1328125 C120.6127574 44.63541888 118.57301673 45.23532179 116.55078125 45.8828125 C115.37257813 46.25792969 114.194375 46.63304687 112.98046875 47.01953125 C110.50868025 47.85222596 108.0940734 48.72488196 105.67578125 49.6953125 C95.83473344 53.49941502 85.07268913 54.80512298 74.70556641 56.44433594 C62.50798478 58.3975342 50.79436651 60.49328918 40.046875 66.90234375 C32.93069862 70.59525242 24.84563723 72.17303072 17.0234375 73.6484375 C9.48298619 75.1784896 9.48298619 75.1784896 3.36328125 79.5078125 C0.4548101 82.34864479 -1.41782476 82.99424744 -5.19921875 84.3203125 C-13.9850235 87.75260477 -17.36835953 94.78029713 -21.23828125 102.93359375 C-24.71339609 109.97132633 -28.53910996 116.81984678 -33.96484375 122.53515625 C-37.2929087 126.4465889 -38.88234551 130.48100546 -40.26171875 135.3828125 C-41.41564889 139.30705583 -42.61992104 143.00661651 -44.38671875 146.6953125 C-46.48106291 151.12943177 -47.49793873 155.66747764 -48.6171875 160.42578125 C-49.45218744 163.62276999 -50.75155811 166.22943902 -52.32421875 169.1328125 C-53.62404279 172.25239021 -54.8875208 175.38482138 -56.140625 178.5234375 C-57.32421875 181.1328125 -57.32421875 181.1328125 -59.32421875 183.1328125 C-59.86236934 185.45467446 -59.86236934 185.45467446 -60.19921875 188.1328125 C-60.99581457 192.92483426 -62.33552279 196.99252194 -64.2421875 201.44140625 C-66.29604437 206.55009716 -67.7494283 211.86133085 -69.32421875 217.1328125 C-69.65421875 218.1228125 -69.98421875 219.1128125 -70.32421875 220.1328125 C-70.62682179 225.71946624 -70.68048429 231.30561804 -70.72924805 236.8996582 C-70.75075183 238.75108581 -70.78476364 240.60241387 -70.83178711 242.45336914 C-71.28686743 257.32764147 -71.28686743 257.32764147 -64.32421875 270.1328125 C-63.35664004 271.60594802 -62.39704454 273.08439088 -61.44921875 274.5703125 C-58.77841195 278.07095222 -56.47545531 279.0786379 -52.3359375 280.30078125 C-49.18093048 281.60566765 -47.27061052 283.889564 -44.984375 286.36328125 C-43.44809651 288.00077338 -41.87951981 289.40947355 -40.13671875 290.8203125 C-37.32421875 293.1328125 -37.32421875 293.1328125 -35.26171875 295.2578125 C-33.12494777 297.32565538 -30.88972357 298.64752024 -28.32421875 300.1328125 C-27.66421875 300.7928125 -27.00421875 301.4528125 -26.32421875 302.1328125 C-23.01586619 303.06593758 -21.64741901 303.24054592 -18.32421875 302.1328125 C-16.32558678 302.00505904 -14.32515988 301.90448671 -12.32421875 301.8203125 C-6.56873377 301.43403834 -1.87307462 300.1850803 3.43359375 297.97265625 C5.67578125 297.1328125 5.67578125 297.1328125 8.67578125 297.1328125 C8.66675781 296.53597656 8.65773438 295.93914062 8.6484375 295.32421875 C8.92966476 287.09526457 11.70739689 280.55737057 14.984375 273.1484375 C16.55640181 269.55049185 17.68680607 265.93761979 18.67578125 262.1328125 C18.87300781 261.41738281 19.07023438 260.70195312 19.2734375 259.96484375 C20.59986358 254.20213547 20.85707401 248.57895948 21.05078125 242.6953125 C21.35340898 233.97651727 22.73561993 225.84337193 24.73828125 217.3671875 C26.07949955 211.60159648 26.81547251 205.81109663 26.86328125 199.8828125 C26.87746094 199.07328125 26.89164063 198.26375 26.90625 197.4296875 C26.83174618 195.13593385 26.83174618 195.13593385 25.69140625 193.390625 C24.08096973 189.81050073 24.32967901 186.14087865 24.23828125 182.2578125 C24.02380549 176.23990876 23.53041629 170.6382607 22.11328125 164.7578125 C20.41556248 157.62404841 18.64438373 149.18985287 22.0546875 142.37890625 C24.03010607 139.64188053 25.55876843 138.43760856 28.67578125 137.1328125 C33.91550724 137.01637414 36.8767094 139.52492542 40.79296875 142.64453125 C42.9757919 144.36995785 45.25783764 145.76046613 47.67578125 147.1328125 C48.43890625 147.6071875 49.20203125 148.0815625 49.98828125 148.5703125 C55.78314478 151.9394192 61.21086586 154.30108647 67.67578125 156.1328125 C70.68155681 157.32233219 73.65429056 158.5784284 76.62890625 159.84375 C79.31816076 160.98151152 82.01962947 162.06786292 84.73828125 163.1328125 C89.26065274 164.92579125 93.66391191 166.93788632 98.078125 168.98046875 C100.3205609 169.97523355 102.54736269 170.83062544 104.86328125 171.6328125 C110.23647588 173.60077267 115.17417054 176.09837219 118.61328125 180.7578125 C120.79074706 185.62508903 121.03333887 190.05722347 121.39453125 195.3203125 C121.57925323 198.2103299 121.57925323 198.2103299 122.67578125 201.1328125 C123.86532531 209.43024949 123.78565245 217.77039328 123.67578125 226.1328125 C129.11356938 224.28231045 134.39716864 222.37217038 139.48828125 219.6953125 C144.6273531 217.01047688 149.96834357 215.22402134 155.4765625 213.44140625 C158.71856348 212.31252092 158.71856348 212.31252092 161.03125 210.10546875 C167.23446874 205.47825241 175.4047926 205.79208204 182.86328125 205.8203125 C183.72630859 205.80419922 184.58933594 205.78808594 185.47851562 205.77148438 C190.63987833 205.76753536 194.21442704 206.25893402 198.67578125 209.1328125 C202.02169433 212.47872558 203.97922631 215.61691917 205.98828125 219.8828125 C207.82636519 223.75612504 209.92252801 226.84750469 212.67578125 230.1328125 C219.12921669 237.94037144 222.4323138 244.97210412 222.67578125 255.1328125 C222.72605469 255.91914063 222.77632813 256.70546875 222.828125 257.515625 C223.08247431 263.51826876 222.04624398 267.97219552 218.36328125 272.8828125 C215.97757479 274.65000247 213.32750337 275.80695144 210.67578125 277.1328125 C210.21429688 277.6175 209.7528125 278.1021875 209.27734375 278.6015625 C207.33147004 280.4620076 205.56154936 281.17632941 203.05078125 282.1328125 C202.16777344 282.47183594 201.28476562 282.81085938 200.375 283.16015625 C197.8846715 284.05753946 195.38421974 284.88878109 192.86328125 285.6953125 C190.35219055 286.50604859 188.45657615 287.26433556 186.17578125 288.6328125 C183.83542497 290.03702627 181.88750888 290.76468184 179.30078125 291.5703125 C174.11582152 293.2267389 169.53173842 295.21885667 165.67578125 299.1953125 C163.00604032 301.78162403 160.09560484 302.71771308 156.67578125 304.1328125 C154.65770575 305.43862606 152.65524717 306.76918042 150.67578125 308.1328125 C150.01707031 308.431875 149.35835938 308.7309375 148.6796875 309.0390625 C146.41530423 310.27498319 145.35471921 311.52912281 143.80078125 313.5703125 C141.68592818 316.18591164 140.82280317 317.07280355 137.61328125 318.3828125 C132.81977859 321.23851621 131.71599251 326.11873398 129.67578125 331.1328125 C129.00390464 332.47408647 128.31795053 333.80847295 127.61328125 335.1328125 C123.54382037 343.23864922 120.94588944 351.05042454 120.67578125 360.1328125 C120.65 360.89964355 120.62421875 361.66647461 120.59765625 362.45654297 C120.51731872 365.14031857 120.46695465 367.82316314 120.42578125 370.5078125 C120.40418945 371.38880615 120.38259766 372.2697998 120.36035156 373.17749023 C120.29563742 378.18929721 120.29563742 378.18929721 122.19140625 382.734375 C122.68125 383.19585937 123.17109375 383.65734375 123.67578125 384.1328125 C124.64515625 383.6584375 125.61453125 383.1840625 126.61328125 382.6953125 C130.21229664 381.12893941 133.46706866 380.71081085 137.3671875 380.5390625 C139.83262666 380.24090929 139.83262666 380.24090929 142.2890625 378.625 C146.98869024 376.5543451 151.22497202 376.77671682 156.30078125 376.7578125 C165.16114683 376.5401844 171.76501574 375.30436832 179.67578125 371.1328125 C195.5841755 364.06005511 214.12684255 357.53341786 231.67578125 356.6328125 C241.02667279 356.09591921 248.68061216 352.08614789 255.67578125 346.1328125 C261.78477595 343.14714889 268.08710964 340.80992891 274.67578125 339.1328125 C276.55195116 338.63722045 278.42686238 338.13684927 280.30078125 337.6328125 C281.20054687 337.395625 282.1003125 337.1584375 283.02734375 336.9140625 C285.70267596 336.20149496 285.70267596 336.20149496 288.16796875 334.9375 C292.94247117 333.40549455 297.32257042 336.12110143 301.67578125 338.1328125 C307.09099006 341.45578154 312.80056333 347.66597706 314.37890625 353.91796875 C314.476875 354.64886719 314.57484375 355.37976563 314.67578125 356.1328125 C313.72316406 356.86886719 312.77054688 357.60492188 311.7890625 358.36328125 C310.52199518 359.34877805 309.25507595 360.33446528 307.98828125 361.3203125 C307.36244141 361.80306641 306.73660156 362.28582031 306.09179688 362.78320312 C302.36072641 365.69382877 298.98068993 368.73299935 295.67578125 372.1328125 C293.47483516 374.14804141 291.23867704 376.11720101 288.99609375 378.0859375 C287.53871089 379.37157491 286.09386148 380.67171097 284.66796875 381.9921875 C280.58273021 385.73009807 276.42135618 388.65771219 271.62109375 391.41015625 C269.3900875 392.7150286 267.21505573 394.05207199 265.04296875 395.44921875 C258.2827508 399.78967189 251.54163802 403.82801804 244.30078125 407.3203125 C237.12234483 410.78793538 230.82087172 414.91718174 224.515625 419.80859375 C214.67255819 427.15290604 202.97088591 432.45530791 191.36328125 436.3828125 C186.94977987 437.88109791 184.1780645 440.01121221 180.67578125 443.1328125 C177.76752421 444.97633108 174.73269395 446.55103791 171.67578125 448.1328125 C170.56203125 448.71546875 169.44828125 449.298125 168.30078125 449.8984375 C158.15903116 455.12999715 158.15903116 455.12999715 153.11328125 456.5703125 C145.63966513 458.83042275 139.11801293 463.79863429 132.71484375 468.140625 C127.837493 471.40585422 124.03600467 473.54842382 118.25390625 474.484375 C112.1180502 476.02763576 106.35097985 479.37540622 100.67578125 482.1328125 C99.01378477 482.91366429 97.34796827 483.68652901 95.67578125 484.4453125 C95.05703125 484.73019531 94.43828125 485.01507812 93.80078125 485.30859375 C87.35521031 487.80862218 81.7500208 488.42051385 74.92578125 488.3203125 C73.65154297 488.3193457 73.65154297 488.3193457 72.3515625 488.31835938 C68.8057484 488.29315217 66.06918541 488.26394722 62.67578125 487.1328125 C60.77664288 486.94269201 58.87716308 486.75512777 56.97583008 486.58837891 C44.90569935 485.47948092 35.29928278 481.90819245 25.61328125 474.5703125 C23.67716613 473.06091004 23.67716613 473.06091004 21.3515625 471.88671875 C18.21502216 469.83079669 16.26691349 467.55529973 13.92578125 464.6328125 C13.1471875 463.67375 12.36859375 462.7146875 11.56640625 461.7265625 C9.12350588 458.37514546 8.55528938 455.82853797 8.39453125 451.7890625 C8.35714844 450.95503906 8.31976563 450.12101562 8.28125 449.26171875 C8.2109375 447.50911458 8.140625 445.75651042 8.0703125 444.00390625 C8.03292969 443.16988281 7.99554688 442.33585937 7.95703125 441.4765625 C7.92673828 440.71537109 7.89644531 439.95417969 7.86523438 439.16992188 C7.73480445 436.93151601 7.73480445 436.93151601 6.67578125 434.1328125 C6.53884129 432.7784128 6.45127216 431.41871565 6.39453125 430.05859375 C6.3579541 429.18605957 6.32137695 428.31352539 6.28369141 427.41455078 C6.23027588 425.94477783 6.23027588 425.94477783 6.17578125 424.4453125 C6.11269775 422.88659424 6.11269775 422.88659424 6.04833984 421.29638672 C5.7477797 413.16550313 5.60618819 405.03765658 5.49609375 396.90234375 C5.46312745 394.72159471 5.42992248 392.54084927 5.39648438 390.36010742 C5.32931166 385.97355873 5.2820307 381.58732747 5.24414062 377.20043945 C5.21428636 375.14924033 5.18371807 373.09805144 5.15234375 371.046875 C5.14913116 370.0916243 5.14591858 369.1363736 5.14260864 368.1521759 C5.11769852 366.83088936 5.11769852 366.83088936 5.09228516 365.48291016 C5.0841983 364.71226227 5.07611145 363.94161438 5.06777954 363.14761353 C4.57097174 360.59411039 3.74211117 359.67620966 1.67578125 358.1328125 C-3.68067995 358.21112334 -8.90315966 359.48687655 -13.76171875 361.6953125 C-18.30842559 363.52994859 -22.46791284 363.63544694 -27.3359375 363.82421875 C-30.24236645 364.12435978 -31.78663434 364.8143719 -34.32421875 366.1328125 C-35.84015625 365.8234375 -35.84015625 365.8234375 -37.38671875 365.5078125 C-43.69232364 364.9072787 -48.95412995 367.77496119 -54.73828125 370.10546875 C-66.51727031 374.12528248 -80.97040874 372.18630666 -92.9375 369.59375 C-95.51578815 369.09581546 -98.01663857 368.91660524 -100.63671875 368.7578125 C-106.30628842 368.31361545 -111.44331889 366.75345476 -116.86328125 365.08984375 C-119.99952249 364.22259871 -122.91271982 363.74937676 -126.13671875 363.3828125 C-133.87393849 362.24193559 -140.53399437 358.53435805 -147.44921875 355.06201172 C-150.37732259 353.61092276 -153.36764703 352.31406977 -156.3671875 351.01953125 C-157.33591797 350.58060547 -157.33591797 350.58060547 -158.32421875 350.1328125 C-159.30390625 349.70613281 -160.28359375 349.27945312 -161.29296875 348.83984375 C-164.63137996 346.95983641 -166.30646061 345.15205469 -168.63671875 342.1328125 C-169.40113281 341.15957031 -170.16554687 340.18632812 -170.953125 339.18359375 C-171.73558594 338.17683594 -172.51804688 337.17007812 -173.32421875 336.1328125 C-174.90197161 334.19076548 -176.4851477 332.25310941 -178.07421875 330.3203125 C-178.7703125 329.46824219 -179.46640625 328.61617188 -180.18359375 327.73828125 C-181.70163869 325.89058787 -183.26696472 324.08128815 -184.86328125 322.30078125 C-187.66969221 318.93362779 -189.2914374 315.28714217 -190.94921875 311.2578125 C-191.23539063 310.58878906 -191.5215625 309.91976563 -191.81640625 309.23046875 C-195.13130179 301.41032882 -197.86751219 293.52918442 -200.26171875 285.37890625 C-201.26743292 282.08105513 -201.26743292 282.08105513 -202.84765625 278.89453125 C-204.87366463 274.27994675 -205.34655855 269.47443149 -205.94921875 264.5078125 C-206.07474121 263.53739014 -206.20026367 262.56696777 -206.32958984 261.56713867 C-207.13036529 255.21858667 -207.75781373 248.88604567 -208.11328125 242.49609375 C-208.2460236 239.98300623 -208.2460236 239.98300623 -209.32421875 237.1328125 C-209.41552397 235.76013327 -209.454874 234.38352332 -209.45703125 233.0078125 C-209.45832031 232.21890625 -209.45960938 231.43 -209.4609375 230.6171875 C-209.45707031 229.79734375 -209.45320313 228.9775 -209.44921875 228.1328125 C-209.45308594 227.31296875 -209.45695312 226.493125 -209.4609375 225.6484375 C-209.45964844 224.85953125 -209.45835937 224.070625 -209.45703125 223.2578125 C-209.45590332 222.53851563 -209.45477539 221.81921875 -209.45361328 221.078125 C-209.32421875 219.1328125 -209.32421875 219.1328125 -208.32421875 216.1328125 C-208.14988499 213.68011684 -208.02186298 211.24484123 -207.9296875 208.7890625 C-207.86081298 207.29944257 -207.79112417 205.80986012 -207.72070312 204.3203125 C-207.61420055 201.98846656 -207.51261704 199.65687547 -207.42553711 197.32421875 C-207.0971748 188.76301755 -206.54038767 181.42990096 -203.19116211 173.42724609 C-201.9555308 170.15705092 -201.96228929 167.16678134 -202.01171875 163.6953125 C-201.68281223 150.0623034 -195.56915567 137.24147393 -189.67382812 125.16308594 C-187.65055504 120.98979715 -186.26576421 116.89312253 -185.046875 112.43359375 C-183.67975161 108.08096848 -181.43391554 104.1623876 -179.32421875 100.1328125 C-178.33352657 98.15299157 -177.35238202 96.16857898 -176.37109375 94.18408203 C-172.13791939 85.63678174 -167.77661159 77.24493112 -162.61328125 69.21484375 C-161.72655217 67.78264193 -160.8900932 66.31848145 -160.09765625 64.83203125 C-153.95222874 53.56541416 -145.15931543 45.08992106 -133.32421875 40.1328125 C-129.56734073 38.1498006 -125.96819896 35.91383291 -122.38671875 33.6328125 C-117.63244951 30.64545558 -112.73974089 28.1330428 -107.55078125 25.984375 C-101.35034325 23.5385224 -101.35034325 23.5385224 -96.76171875 18.9453125 C-93.20992274 14.84708633 -89.50086499 14.83144931 -84.32421875 14.1328125 C-83.62554687 13.94203125 -82.926875 13.75125 -82.20703125 13.5546875 C-80.32421875 13.1328125 -80.32421875 13.1328125 -77.26171875 13.6953125 C-74.1417007 14.49590303 -74.1417007 14.49590303 -71.32421875 12.1328125 C-67.84026542 11.24013981 -64.35297699 10.46646281 -60.8359375 9.72070312 C-57.22053591 8.92046873 -54.12387801 8.04444599 -50.7109375 6.5390625 C-47.06964289 5.02710626 -44.30834775 4.70706222 -40.38671875 4.5703125 C-34.78225508 4.29696695 -34.78225508 4.29696695 -29.32421875 3.1328125 C-24.45604577 1.70099692 -19.43955076 1.64594901 -14.3984375 1.37890625 C-9.49380247 0.98628616 -5.01860577 -0.01284912 0 0 Z " fill="#000000" transform="translate(257.32421875,81.8671875)"/>
<path d="M0 0 C0.66 0.33 1.32 0.66 2 1 C0.58531689 1.96125903 -0.8318364 2.91888325 -2.25 3.875 C-3.03890625 4.40867187 -3.8278125 4.94234375 -4.640625 5.4921875 C-8.74333925 8.11412078 -8.74333925 8.11412078 -11 9 C-11.99 8.67 -12.98 8.34 -14 8 C-11.7136988 6.63597957 -9.42178251 5.28365726 -7.125 3.9375 C-6.47402344 3.54755859 -5.82304688 3.15761719 -5.15234375 2.75585938 C-3.46934275 1.77555467 -1.73703801 0.88101568 0 0 Z " fill="#000000" transform="translate(540,488)"/>
<path d="M0 0 C0.99 0.99 1.98 1.98 3 3 C2.67 3.66 2.34 4.32 2 5 C1.01 4.34 0.02 3.68 -1 3 C-0.67 2.01 -0.34 1.02 0 0 Z " fill="#000000" transform="translate(54,415)"/>
<path d="M0 0 C0.66 0.33 1.32 0.66 2 1 C0.35 2.32 -1.3 3.64 -3 5 C-1.125 1.125 -1.125 1.125 0 0 Z " fill="#000000" transform="translate(554,476)"/>
<path d="M0 0 C0.66 0.33 1.32 0.66 2 1 C1.34 1.66 0.68 2.32 0 3 C-0.99 2.67 -1.98 2.34 -3 2 C-2.01 1.34 -1.02 0.68 0 0 Z " fill="#000000" transform="translate(559,473)"/>
<path d="M0 0 C0.66 0.33 1.32 0.66 2 1 C0.68 1.99 -0.64 2.98 -2 4 C-1.34 2.68 -0.68 1.36 0 0 Z " fill="#000000" transform="translate(571,461)"/>
<path d="M0 0 C0.99 0.495 0.99 0.495 2 1 C1.01 1.495 1.01 1.495 0 2 C0 1.34 0 0.68 0 0 Z " fill="#000000" transform="translate(562,470)"/>
<path d="M0 0 C0.66 0.66 1.32 1.32 2 2 C1.34 2 0.68 2 0 2 C0 1.34 0 0.68 0 0 Z " fill="#000000" transform="translate(41,429)"/>
<path d="M0 0 C2 1 2 1 2 1 Z " fill="#000000" transform="translate(544,485)"/>
<path d="" fill="#000000" transform="translate(0,0)"/>
<path d="" fill="#000000" transform="translate(0,0)"/>
<path d="" fill="#000000" transform="translate(0,0)"/>
<path d="" fill="#000000" transform="translate(0,0)"/>
<path d="" fill="#000000" transform="translate(0,0)"/>
<path d="" fill="#000000" transform="translate(0,0)"/>
<path d="" fill="#000000" transform="translate(0,0)"/>
<path d="" fill="#000000" transform="translate(0,0)"/>
<path d="" fill="#000000" transform="translate(0,0)"/>
<path d="" fill="#000000" transform="translate(0,0)"/>
<path d="" fill="#000000" transform="translate(0,0)"/>
<path d="" fill="#000000" transform="translate(0,0)"/>
<path d="" fill="#000000" transform="translate(0,0)"/>
<path d="" fill="#000000" transform="translate(0,0)"/>
<path d="" fill="#000000" transform="translate(0,0)"/>
</svg>
